<svg width="28" height="29" viewBox="0 0 28 29" fill="none" xmlns="http://www.w3.org/2000/svg">
<path d="M3.27796 6.56194C3.22612 5.07116 4.38746 3.69653 5.95743 3.69653H22.0443C23.6143 3.69653 24.7756 5.07116 24.7238 6.56194C24.6739 7.99388 24.7386 9.84888 25.2055 11.3613C25.6738 12.8786 26.4635 13.8373 27.757 13.9607V15.3579C26.4635 15.4813 25.6738 16.44 25.2055 17.9573C24.7386 19.4697 24.6739 21.3247 24.7238 22.7567C24.7756 24.2474 23.6143 25.6218 22.0443 25.6218H5.95743C4.38746 25.6218 3.22612 24.2472 3.27796 22.7567C3.32783 21.3247 3.26308 19.4697 2.79605 17.9573C2.32793 16.4403 1.53605 15.4813 0.242584 15.3579V13.9607C1.53605 13.8376 2.32793 12.8786 2.79605 11.3613C3.26308 9.84888 3.32762 7.99388 3.27796 6.56194Z" fill="url(#paint0_linear_143_266)"/>
<g filter="url(#filter0_d_143_266)">
<path d="M14.6803 20.5674C17.2219 20.5674 18.7535 19.323 18.7535 17.2703C18.7535 15.7187 17.6607 14.5955 16.038 14.4176V14.353C17.2302 14.159 18.1657 13.0519 18.1657 11.8155C18.1657 10.0538 16.7749 8.90625 14.6554 8.90625H9.88672V20.5674H14.6803ZM11.7412 10.3851H14.2084C15.5496 10.3851 16.3112 10.9831 16.3112 12.066C16.3112 13.2216 15.4254 13.8681 13.8193 13.8681H11.7412V10.3851ZM11.7412 19.0885V15.25H14.1918C15.9469 15.25 16.8576 15.8965 16.8576 17.1571C16.8576 18.4178 15.9718 19.0885 14.2994 19.0885H11.7412Z" fill="url(#paint1_linear_143_266)"/>
</g>
<defs>
<filter id="filter0_d_143_266" x="5.95616" y="5.95833" width="16.7279" height="19.5223" filterUnits="userSpaceOnUse" color-interpolation-filters="sRGB">
<feFlood flood-opacity="0" result="BackgroundImageFix"/>
<feColorMatrix in="SourceAlpha" type="matrix" values="0 0 0 0 0 0 0 0 0 0 0 0 0 0 0 0 0 0 127 0" result="hardAlpha"/>
<feOffset dy="0.98264"/>
<feGaussianBlur stdDeviation="1.96528"/>
<feColorMatrix type="matrix" values="0 0 0 0 0 0 0 0 0 0 0 0 0 0 0 0 0 0 0.15 0"/>
<feBlend mode="normal" in2="BackgroundImageFix" result="effect1_dropShadow_143_266"/>
<feBlend mode="normal" in="SourceGraphic" in2="effect1_dropShadow_143_266" result="shape"/>
</filter>
<linearGradient id="paint0_linear_143_266" x1="4.33115" y1="4.2768" x2="28.3736" y2="23.362" gradientUnits="userSpaceOnUse">
<stop stop-color="#9013FE"/>
<stop offset="1" stop-color="#6610F2"/>
</linearGradient>
<linearGradient id="paint1_linear_143_266" x1="10.7257" y1="9.67363" x2="16.0995" y2="18.7624" gradientUnits="userSpaceOnUse">
<stop stop-color="white"/>
<stop offset="1" stop-color="#F1E5FC"/>
</linearGradient>
</defs>
</svg>
