<svg width="28" height="29" viewBox="0 0 28 29" fill="none" xmlns="http://www.w3.org/2000/svg">
<g clip-path="url(#clip0_143_235)">
<path d="M4.11557 25.4643L1.91626 0.795654H26.0838L23.8823 25.4606L13.9854 28.2044L4.11557 25.4643Z" fill="#1572B6"/>
<path d="M14.0002 26.1074L21.9975 23.8902L23.879 2.81274H14.0002V26.1074Z" fill="#33A9DC"/>
<path d="M14.0002 11.7502H18.0038L18.2803 8.652H14.0002V5.62646H21.5869L21.5143 6.43825L20.7705 14.7757H14.0002V11.7502Z" fill="white"/>
<path d="M14.0181 19.6077L14.0048 19.6116L10.6354 18.7018L10.4199 16.2888H7.38324L7.80696 21.0394L14.0044 22.7594L14.0181 22.7555V19.6077Z" fill="#EBEBEB"/>
<path d="M17.7465 14.6477L17.3821 18.6994L14.0077 19.6103V22.7581L20.2101 21.0391L20.2556 20.5279L20.7819 14.6477H17.7465Z" fill="white"/>
<path d="M14.0105 5.62646V8.652H6.70251L6.64192 7.97212L6.50411 6.43825L6.4317 5.62646H14.0105ZM14.0002 11.7506V14.7761H10.6733L10.6127 14.0962L10.4746 12.5624L10.4025 11.7506H14.0002Z" fill="#EBEBEB"/>
</g>
<defs>
<clipPath id="clip0_143_235">
<rect width="28" height="28" fill="white" transform="translate(0 0.5)"/>
</clipPath>
</defs>
</svg>
