<svg width="28" height="29" viewBox="0 0 28 29" fill="none" xmlns="http://www.w3.org/2000/svg">
<path d="M27.3 11.8969C26.3594 11.35 25.1125 11.2844 24.0625 11.5906C23.9313 10.4531 23.1875 9.46875 22.3125 8.76875L21.9625 8.48437L21.6563 8.83437C21.0656 9.5125 20.8906 10.65 20.9781 11.525C21.0438 12.1594 21.2406 12.8156 21.6344 13.3406C21.3281 13.5156 21 13.7562 20.6938 13.8656C20.0813 14.0844 19.4031 14.3031 18.7469 14.3031H17.2813V11.2187H14.4375V5.75H11.1563V8.375H5.68751V11.2187H2.84376V14.2812H0.39376L0.35001 14.6094C0.240635 16.0094 0.415635 17.3656 1.00626 18.6562L1.24689 19.1375L1.26876 19.1812C2.99689 22.1125 6.01564 23.3375 9.31876 23.3375C15.7063 23.3375 20.9781 20.4719 23.3844 14.4562C25.0031 14.5437 26.6656 14.0625 27.4531 12.5094L27.65 12.1156L27.3 11.8969ZM6.12501 9.03125H8.31251V11.4375H6.12501V9.03125ZM8.99063 18.7C8.99063 19.0719 8.68439 19.3781 8.31251 19.3781C7.94064 19.3781 7.63439 19.0719 7.63439 18.7C7.63439 18.3281 7.94064 18.0219 8.31251 18.0219C8.68439 18.0437 8.99063 18.3281 8.99063 18.7ZM6.12501 11.875H8.31251V14.2812H6.12501V11.875ZM3.28126 11.875H5.68751V14.2812H3.28126V11.875ZM9.34064 22.8562C5.88439 22.8344 4.02501 21.675 2.49376 20.1437C2.95314 20.1656 3.39064 20.1875 3.78438 20.1875C4.13439 20.1875 4.48439 20.1875 4.81251 20.1656C5.66564 20.1219 6.40938 20.0125 7.02188 19.8375C7.52501 20.9969 8.44376 22.0687 10.0844 22.8562H9.34064ZM11.1563 14.2812H8.75001V11.875H11.1563V14.2812ZM11.1563 11.4375H8.75001V9.03125H11.1563V11.4375ZM14 14.2812H11.5938V11.875H14V14.2812ZM14 11.4375H11.5938V9.03125H14V11.4375ZM14 8.59375H11.5938V6.1875H14V8.59375ZM16.8438 14.2812H14.4375V11.875H16.8438V14.2812ZM8.48751 18.2625C8.44376 18.2406 8.37814 18.2187 8.31251 18.2187C8.05001 18.2187 7.83126 18.4375 7.83126 18.7C7.83126 18.9625 8.05001 19.1812 8.31251 19.1812C8.57501 19.1812 8.79376 18.9625 8.79376 18.7C8.79376 18.6344 8.77188 18.5687 8.75001 18.525C8.70626 18.5906 8.66251 18.6344 8.57501 18.6344C8.46564 18.6344 8.37814 18.5469 8.37814 18.4375C8.40001 18.35 8.44376 18.2844 8.48751 18.2625Z" fill="#019BC6"/>
</svg>
