<svg width="28" height="29" viewBox="0 0 28 29" fill="none" xmlns="http://www.w3.org/2000/svg">
<g clip-path="url(#clip0_143_260)">
<path d="M27.2873 13.2703L15.2305 1.21409C14.5366 0.519781 13.4105 0.519781 12.7155 1.21409L10.2123 3.71791L13.3881 6.89372C14.1264 6.64456 14.9726 6.81169 15.5608 7.39991C15.8411 7.68048 16.0368 8.03428 16.1255 8.42086C16.2142 8.80743 16.1923 9.21116 16.0624 9.58588L19.1231 12.6471C19.8636 12.3918 20.7182 12.5567 21.3093 13.1491C22.1362 13.9753 22.1362 15.3147 21.3093 16.1414C21.1128 16.338 20.8795 16.4939 20.6227 16.6003C20.3659 16.7067 20.0907 16.7615 19.8127 16.7615C19.5348 16.7615 19.2595 16.7067 19.0027 16.6003C18.746 16.4939 18.5126 16.338 18.3162 16.1414C18.0209 15.846 17.8197 15.4698 17.7377 15.0603C17.6558 14.6508 17.6968 14.2262 17.8557 13.8399L15.0014 10.9854L15.001 18.4975C15.2081 18.5995 15.3972 18.7346 15.5608 18.8974C16.3874 19.7236 16.3874 21.0626 15.5608 21.8906C14.7341 22.7168 13.3943 22.7168 12.5685 21.8906C11.7421 21.0628 11.6742 19.7238 12.5005 18.8974C12.7048 18.6933 12.9062 18.5391 13.125 18.4358V10.8542C12.9062 10.7509 12.705 10.5978 12.5002 10.3924C11.8744 9.76678 11.7574 8.84803 12.0785 8.07891L8.96502 4.94794L0.706338 13.2145C0.0118069 13.9095 0.0161819 15.0356 0.710713 15.7301L12.7695 27.7863C13.4636 28.4806 14.5906 28.4806 15.2858 27.7863L27.2864 15.7861C27.981 15.0914 27.9816 13.9646 27.2873 13.2703Z" fill="#F34F29"/>
</g>
<defs>
<clipPath id="clip0_143_260">
<rect width="28" height="28" fill="white" transform="translate(0 0.5)"/>
</clipPath>
</defs>
</svg>
