<svg width="28" height="29" viewBox="0 0 28 29" fill="none" xmlns="http://www.w3.org/2000/svg">
<g clip-path="url(#clip0_143_192)">
<path d="M4.16433 25.4103L1.97574 0.863281H26.0242L23.8332 25.4066L13.9853 28.1366L4.16433 25.4103Z" fill="#E44D26"/>
<path d="M14 26.05L21.9577 23.8437L23.83 2.87036H14V26.05Z" fill="#F16529"/>
<path d="M14 11.9746H10.0161L9.74093 8.89154H14V5.8811H6.45071L6.5229 6.68873L7.26271 14.9853H14V11.9746ZM14 19.7934L13.9867 19.7971L10.6339 18.8915L10.4197 16.4907H7.39725L7.819 21.2177L13.9862 22.9296L14 22.9259V19.7934Z" fill="#EBEBEB"/>
<path d="M13.9895 11.9746V14.9853H17.6967L17.3473 18.8897L13.9895 19.796V22.9283L20.1615 21.2177L20.2068 20.7091L20.9143 12.7831L20.9875 11.9746H20.1764H13.9895ZM13.9895 5.8811V8.89154H21.2616L21.322 8.21517L21.4594 6.68873L21.5313 5.8811H13.9895Z" fill="white"/>
</g>
<defs>
<clipPath id="clip0_143_192">
<rect width="28" height="28" fill="white" transform="translate(0 0.5)"/>
</clipPath>
</defs>
</svg>
