<svg width="28" height="29" viewBox="0 0 28 29" fill="none" xmlns="http://www.w3.org/2000/svg">
<g clip-path="url(#clip0_143_252)">
<path d="M0.308014 0.808105H27.692V28.1923H0.308014V0.808105Z" fill="#F0DB4F"/>
<path d="M25.4509 21.6611C25.2503 20.4118 24.4357 19.3624 22.0227 18.384C21.1844 17.9988 20.2499 17.7229 19.9714 17.0877C19.8726 16.718 19.8594 16.5097 19.922 16.2859C20.1016 15.5597 20.9685 15.3333 21.6556 15.5415C22.0981 15.6898 22.517 16.0309 22.7697 16.5749C23.9514 15.8097 23.949 15.8148 24.7741 15.2889C24.472 14.8205 24.3108 14.6044 24.113 14.404C23.4023 13.6102 22.4339 13.2013 20.8852 13.2326L20.0784 13.337C19.3053 13.5323 18.5686 13.9381 18.1366 14.4821C16.8402 15.953 17.2099 18.5273 18.7873 19.5867C20.3413 20.753 22.6242 21.0184 22.9158 22.1091C23.1995 23.4443 21.9345 23.8766 20.6771 23.723C19.7505 23.5303 19.2351 23.0593 18.678 22.2029C17.6525 22.7964 17.6525 22.7964 16.5981 23.4028C16.8481 23.9494 17.1108 24.1968 17.53 24.6704C19.5136 26.6825 24.4775 26.5836 25.3678 23.5382C25.4039 23.4336 25.6436 22.7362 25.4509 21.6611ZM15.1948 13.3938H12.6335L12.623 20.0158C12.623 21.4242 12.6958 22.7152 12.4668 23.1109C12.0921 23.8893 11.121 23.7928 10.6785 23.6418C10.2281 23.4205 9.99906 23.1057 9.73372 22.6608C9.66087 22.533 9.60619 22.4341 9.58781 22.4265L7.50531 23.7018C7.85159 24.4125 8.36172 25.0294 9.01512 25.4301C9.99119 26.0159 11.303 26.1955 12.675 25.8805C13.568 25.6204 14.3384 25.0817 14.7418 24.2616C15.325 23.1864 15.1998 21.8851 15.1946 20.4457C15.2077 18.0974 15.1948 15.7496 15.1948 13.3938Z" fill="#323330"/>
</g>
<defs>
<clipPath id="clip0_143_252">
<rect width="28" height="28" fill="white" transform="translate(0 0.5)"/>
</clipPath>
</defs>
</svg>
