<svg width="28" height="29" viewBox="0 0 28 29" fill="none" xmlns="http://www.w3.org/2000/svg">
<g clip-path="url(#clip0_143_359)">
<path d="M16.4769 0.587621C16.2805 0.587621 16.084 0.631152 15.9095 0.696559C16.2805 0.936746 16.4769 1.264 16.5861 1.635C16.5861 1.67875 16.6079 1.7225 16.6079 1.76603C16.6079 1.80978 16.6298 1.85331 16.6298 1.89684C16.6517 2.5299 16.455 2.61718 16.3242 2.98818C16.1059 3.46812 16.1715 3.99203 16.4334 4.40656C16.4552 4.45031 16.4771 4.51593 16.5207 4.55946C16.2369 2.72634 17.7645 2.46428 18.0482 1.89684C18.0701 1.39503 17.6555 1.06778 17.3281 0.82759C17.0008 0.631152 16.7387 0.587402 16.4771 0.587402L16.4769 0.587621ZM18.7688 0.980059C18.7469 1.15462 18.7687 1.11109 18.7469 1.19837C18.7469 1.26378 18.7469 1.32918 18.725 1.39481C18.7031 1.46021 18.7031 1.50396 18.6812 1.56937C18.6594 1.635 18.6377 1.67853 18.6158 1.74393C18.594 1.78768 18.5721 1.83121 18.5502 1.89662C18.5286 1.9185 18.5067 1.96225 18.485 1.98412C18.4632 2.006 18.4632 2.02765 18.4413 2.04953C18.3975 2.09328 18.3757 2.15846 18.3321 2.20221L18.2013 2.33325C18.1576 2.377 18.1138 2.42053 18.0703 2.44218C17.9176 2.55156 17.743 2.63862 17.5901 2.74778C17.5464 2.79153 17.481 2.8134 17.4374 2.85693C17.3937 2.90068 17.3499 2.92256 17.3064 2.96609L17.1756 3.0969C17.1318 3.14065 17.0881 3.1844 17.0662 3.24981C17.0227 3.29356 17.0008 3.35896 16.9573 3.4025C16.9354 3.46812 16.9135 3.51165 16.87 3.57706C16.8481 3.64268 16.8263 3.68643 16.8044 3.75162C16.7825 3.81725 16.7608 3.88265 16.7608 3.92618C16.7608 3.94806 16.7608 3.99181 16.739 4.01368C16.739 4.03556 16.739 4.07909 16.7171 4.10097V4.40634C16.7171 4.47196 16.7171 4.51571 16.739 4.5809C16.739 4.64653 16.7608 4.69028 16.7827 4.75568C16.8046 4.82109 16.8265 4.86462 16.8483 4.93025C16.87 4.974 16.8919 4.99565 16.8919 5.0394L15.2331 4.40634C14.9595 4.32348 14.683 4.25073 14.404 4.18825C14.2511 4.1445 14.0984 4.12262 13.9455 4.07887C13.5125 3.99216 13.0755 3.92668 12.6361 3.88265H12.5923C12.1559 3.8389 11.7414 3.81703 11.305 3.81703C10.9775 3.81703 10.6719 3.8389 10.3666 3.86078C9.92994 3.88265 9.49375 3.94828 9.05713 4.01368L8.72966 4.07909C8.51156 4.12284 8.29325 4.16637 8.07494 4.23178C7.96578 4.25365 7.85684 4.2974 7.74769 4.31928C7.63853 4.36281 7.52938 4.40634 7.44209 4.45009C7.35481 4.49384 7.28941 4.51571 7.20213 4.55925C7.18025 4.55925 7.18025 4.55925 7.15837 4.58112C7.09275 4.62465 7.02756 4.64653 6.96194 4.69006C6.94006 4.69006 6.91819 4.71193 6.91819 4.71193C6.83112 4.75568 6.7655 4.79943 6.70009 4.82109C6.65634 4.84296 6.59094 4.86484 6.54741 4.88671C6.52553 4.90837 6.50366 4.90837 6.48178 4.93025C6.41638 4.974 6.35097 4.99565 6.28534 5.03918C6.21994 5.08293 6.15453 5.10481 6.11078 5.14856C6.06703 5.19209 6.00163 5.21396 5.95809 5.2575C5.95809 5.2575 5.93622 5.2575 5.93622 5.27937C5.89247 5.30125 5.84894 5.345 5.80541 5.38853L5.78353 5.4104C5.73978 5.43228 5.71791 5.47581 5.67438 5.49768C5.6525 5.49768 5.6525 5.51956 5.63062 5.51956C5.58709 5.54143 5.56522 5.58496 5.52169 5.60662C5.52169 5.6285 5.49981 5.6285 5.49981 5.6285L5.36878 5.75953L5.34691 5.7814L5.21609 5.91221C5.21609 5.91221 5.21609 5.93409 5.19422 5.93409L5.08506 6.04325C5.06319 6.06512 5.04131 6.06512 5.04131 6.087L4.9105 6.21781C4.9105 6.23968 4.88863 6.23968 4.88863 6.26156L4.71406 6.4359L4.69219 6.45778C4.58325 6.58881 4.45222 6.69797 4.32141 6.80712C4.19037 6.91606 4.05934 7.02521 3.90666 7.13437C3.75397 7.24353 3.62294 7.33081 3.47025 7.41809C3.31734 7.50537 3.16466 7.57078 3.01197 7.6364C2.85906 7.70181 2.70637 7.76722 2.55369 7.81097C2.24809 7.87659 1.9425 8.0074 1.68066 8.02906C1.68066 7.92012 1.61503 7.94178 1.54963 7.94178C1.48422 7.96365 1.41881 7.96365 1.37506 7.98553C1.30944 8.0074 1.26591 8.02928 1.2005 8.05115C1.13825 8.07119 1.07939 8.10055 1.02594 8.13822C0.982188 8.18197 0.916781 8.20384 0.87325 8.24759C0.8295 8.29112 0.763875 8.33465 0.720344 8.3784C0.676594 8.42215 0.611188 8.46568 0.567656 8.50921C0.523906 8.55297 0.480156 8.59671 0.436625 8.66212C0.392875 8.72753 0.349344 8.77106 0.327469 8.83668C0.283937 8.88043 0.262062 8.94584 0.218531 9.01125C0.196656 9.07687 0.152906 9.14206 0.131031 9.20768L0.065625 9.40412C0.04375 9.46953 0.04375 9.51306 0.021875 9.57868V9.60056C0 9.66618 0 9.75325 0 9.797C0.021875 9.77512 0.021875 9.81887 0.021875 9.8624V9.94968C0.021875 9.99343 0.04375 10.037 0.04375 10.0805C0.065625 10.1242 0.065625 10.168 0.0875 10.2115C0.109156 10.2553 0.131031 10.2988 0.174562 10.3426C0.196437 10.3863 0.240187 10.4298 0.262062 10.4734C0.305594 10.5171 0.349125 10.5609 0.392875 10.5825C0.436625 10.6263 0.480156 10.67 0.523687 10.6917C0.69825 10.8444 0.742 10.8881 0.960312 11.0189C1.00406 11.0408 1.02572 11.0627 1.06947 11.0846H1.09134V11.1283C1.09134 11.1935 1.11322 11.2372 1.13488 11.3027C1.15675 11.3683 1.17862 11.4337 1.2005 11.4772L1.26569 11.6082C1.26569 11.6301 1.28756 11.6301 1.28756 11.652C1.30944 11.7174 1.35319 11.7609 1.37506 11.8047C1.41859 11.8484 1.44047 11.9138 1.484 11.9574L1.61503 12.0884L1.74584 12.2192H1.76772C1.81147 12.263 1.855 12.2848 1.89875 12.3286C1.9425 12.3723 2.00791 12.394 2.05144 12.4157C2.09519 12.4375 2.16059 12.4813 2.226 12.5032C2.26975 12.525 2.3135 12.5467 2.37869 12.5467C2.37869 12.5467 2.40056 12.5467 2.40056 12.5686C2.42244 12.5686 2.46619 12.5904 2.48806 12.5904C2.46619 12.9831 2.46619 13.3541 2.50994 13.4851C2.57512 13.6378 2.90259 13.1795 3.20819 12.6777C3.16444 13.1795 3.14256 13.7688 3.20819 13.9434C3.29547 14.118 3.71 13.5505 4.10288 12.9393C9.20959 11.7609 13.8799 15.2964 14.3819 20.2942C14.2944 19.5084 13.3341 19.072 12.8761 19.1812C12.6578 19.7048 12.2867 20.4033 11.6977 20.8178C11.7412 20.3377 11.7195 19.8575 11.632 19.3776C11.4793 20.0323 11.1737 20.6652 10.7373 21.1888C10.0608 21.2326 9.3625 20.9051 9.01316 20.4033C8.99128 20.3814 8.96941 20.3377 8.94775 20.3158C8.92587 20.2723 8.904 20.2069 8.88212 20.1631C8.86025 20.1194 8.83859 20.054 8.83859 20.0104V19.7486C8.83859 19.7048 8.86047 19.6392 8.88234 19.5957C8.90422 19.5522 8.90422 19.4865 8.92609 19.443C8.94775 19.3992 8.96962 19.3338 9.01316 19.2903C9.14419 18.941 9.14419 18.6572 8.904 18.5046L8.77319 18.4389C8.75131 18.4389 8.70756 18.4173 8.68569 18.4173C8.66381 18.4173 8.64216 18.3954 8.62028 18.3954C8.57675 18.3735 8.51134 18.3735 8.46759 18.3517C8.42384 18.3298 8.35844 18.3298 8.31491 18.3298C8.27116 18.3298 8.20553 18.3081 8.162 18.3081H8.05306C7.98744 18.3081 7.94369 18.3081 7.90016 18.33C7.85641 18.33 7.791 18.3519 7.74747 18.3519C7.70372 18.3737 7.63831 18.3737 7.59456 18.3956C7.55103 18.4173 7.50728 18.4392 7.44187 18.4608L7.31084 18.5264C5.63041 19.6176 6.63447 22.1927 7.76934 22.9347C7.33272 23.0222 6.89631 23.1092 6.76528 23.1967L6.74341 23.2186C7.049 23.4148 7.37647 23.5677 7.72559 23.6986C8.18388 23.8515 8.68591 23.9823 8.904 24.0479C9.49331 24.1787 10.1045 24.2225 10.7155 24.1787C13.9018 23.9604 16.5207 21.5163 17.0006 18.33C17.0225 18.3956 17.0225 18.4608 17.0443 18.5264C17.0662 18.6572 17.0881 18.7883 17.11 18.941C17.1318 19.0066 17.1318 19.072 17.1318 19.1374V19.1593C17.1318 19.2249 17.1535 19.2903 17.1535 19.3557C17.1535 19.443 17.1754 19.5084 17.1754 19.5957V20.5122C17.1754 20.5779 17.1535 20.6216 17.1535 20.687V20.7524C17.1535 20.8181 17.1316 20.8835 17.1316 20.9707C17.1098 21.0362 17.1097 21.1016 17.0879 21.1672V21.1891C17.066 21.2545 17.066 21.3199 17.0443 21.3853V21.4072C17.0225 21.4728 17.0225 21.5382 17.0006 21.6036V21.6255L16.9352 21.8219V21.8438C16.9133 21.9092 16.8914 21.9965 16.8698 22.0619C16.8479 22.1275 16.826 22.1929 16.7823 22.2802C16.7606 22.3456 16.7388 22.4329 16.6952 22.4983C16.6733 22.5639 16.6296 22.6293 16.6077 22.7166C16.5861 22.7822 16.5423 22.8476 16.5207 22.913C16.5207 22.9349 16.4988 22.9568 16.4988 22.9568C16.4988 22.9568 16.4988 22.9787 16.4769 22.9787C16.0186 23.9169 15.3204 24.7462 14.4473 25.4009C14.3817 25.4446 14.3382 25.4884 14.2728 25.5319C14.2509 25.5538 14.229 25.5538 14.229 25.5757C14.1853 25.6192 14.1199 25.6411 14.0763 25.6846L14.0982 25.7283C14.2072 25.7065 14.2947 25.7065 14.4036 25.6846C14.6 25.6627 14.7746 25.619 14.971 25.5754C15.0148 25.5754 15.0804 25.5536 15.1239 25.5317C15.1677 25.5317 15.1893 25.5098 15.2329 25.5098C15.2764 25.5098 15.3422 25.4882 15.3858 25.4882C15.4295 25.4663 15.4731 25.4663 15.5166 25.4444C16.2369 25.2701 16.9352 25.0299 17.6118 24.7462C16.455 26.3174 14.9275 27.5833 13.1379 28.4124C13.9672 28.347 14.7965 28.2162 15.6039 27.976C18.5033 27.1246 20.9499 25.1642 22.4129 22.5202C22.1075 24.1787 21.4526 25.7719 20.4706 27.1686C21.1691 26.7103 21.8019 26.1645 22.3913 25.5754C24.0061 23.895 25.0753 21.7344 25.4247 19.443C25.6648 20.5779 25.7521 21.7563 25.643 22.913C30.8588 15.6457 26.0794 8.11656 24.0717 6.13053C24.0717 6.10865 24.0498 6.10865 24.0498 6.08678C24.0498 6.17428 24.0498 6.26134 24.0279 6.34884C24.0061 6.5234 23.9842 6.67609 23.9623 6.82878C23.9188 6.98168 23.8752 7.15625 23.8315 7.30893C23.7878 7.46184 23.7223 7.61453 23.6569 7.76722C23.5913 7.92012 23.5259 8.07281 23.4386 8.20384C23.3513 8.33487 23.2641 8.48756 23.1768 8.61837C23.0895 8.7494 22.9803 8.88022 22.8712 9.01125C22.7623 9.14228 22.6531 9.25121 22.5221 9.38225C22.4564 9.44787 22.3913 9.51328 22.304 9.55681C22.2383 9.60056 22.1946 9.64431 22.1292 9.7095C21.9984 9.81887 21.8673 9.90593 21.7147 9.99322C21.5836 10.0807 21.4309 10.168 21.2783 10.2334L20.8197 10.4298C20.6671 10.4952 20.5144 10.539 20.3615 10.5825C20.2088 10.6263 20.0342 10.67 19.8813 10.6917C19.7068 10.7136 19.5541 10.7354 19.4014 10.7573C19.292 10.7573 19.1612 10.779 19.052 10.779C18.8775 10.779 18.7248 10.7571 18.5721 10.7571C18.3973 10.7352 18.2446 10.7133 18.0919 10.6915C17.9264 10.6713 17.7647 10.6273 17.6118 10.5607C17.7645 10.5388 17.939 10.5388 18.0919 10.4952C18.2665 10.4734 18.4192 10.4296 18.5721 10.3861C18.7248 10.3423 18.8993 10.2988 19.0304 10.2334L19.4887 10.037C19.6413 9.97134 19.7724 9.88428 19.9251 9.797C20.0561 9.7095 20.2088 9.60056 20.3398 9.51328C20.4706 9.4039 20.6017 9.29497 20.7108 9.18581C20.8416 9.07665 20.9508 8.94584 21.0599 8.83668C21.1691 8.70565 21.2782 8.57484 21.3655 8.44381C21.3874 8.42193 21.3874 8.40006 21.4093 8.37818C21.4745 8.26925 21.5617 8.13822 21.6274 8.02928C21.7088 7.88824 21.7816 7.74244 21.8455 7.59265C21.9111 7.43997 21.9767 7.28706 22.0203 7.13437L22.1511 6.67609C22.1729 6.50153 22.2167 6.34884 22.2167 6.19593C22.2386 6.02137 22.2386 5.86868 22.2386 5.71578C22.2386 5.60684 22.2386 5.47581 22.2167 5.36665C22.1948 5.19209 22.1729 5.0394 22.1511 4.8865C22.1292 4.71193 22.0854 4.55925 22.0419 4.40634C21.9982 4.25365 21.9328 4.10096 21.8892 3.94806C21.8236 3.79537 21.7582 3.64268 21.6928 3.51165C21.6055 3.35896 21.5401 3.22793 21.4528 3.07525C21.3653 2.94421 21.2564 2.81318 21.1691 2.68237C21.0599 2.55134 20.9508 2.44218 20.8416 2.31137C20.7762 2.24575 20.7108 2.18034 20.6452 2.13681C20.3179 1.87496 19.9905 1.65665 19.6413 1.43834C19.5976 1.41646 19.5541 1.39459 19.4887 1.37271C19.2049 1.13296 18.9868 1.06734 18.7688 0.980059Z" fill="#DF234F"/>
</g>
<defs>
<clipPath id="clip0_143_359">
<rect width="28" height="28" fill="white" transform="translate(0 0.5)"/>
</clipPath>
</defs>
</svg>
