<svg width="28" height="29" viewBox="0 0 28 29" fill="none" xmlns="http://www.w3.org/2000/svg">
<g clip-path="url(#clip0_143_288)">
<path d="M14.6471 0.680574C14.4461 0.565451 14.2186 0.504883 13.987 0.504883C13.7554 0.504883 13.5278 0.565451 13.3269 0.680574L2.42878 7.01011C2.01425 7.24461 1.78128 7.68714 1.78128 8.15636V20.8412C1.78128 21.31 2.04006 21.7528 2.42834 21.9875L13.3265 28.3168C13.5274 28.432 13.755 28.4925 13.9867 28.4925C14.2183 28.4925 14.4459 28.432 14.6468 28.3168L25.545 21.9873C25.9593 21.7528 26.192 21.31 26.192 20.841V8.15636C26.192 7.68736 25.9333 7.24482 25.545 7.01011L14.6471 0.680574Z" fill="url(#paint0_linear_143_288)"/>
<path d="M25.5712 7.00998L14.6215 0.680449C14.5139 0.625802 14.4011 0.582193 14.2848 0.550293L2.01468 21.6745C2.11616 21.7993 2.23887 21.9052 2.37715 21.9874L13.3271 28.3167C13.6377 28.4989 14 28.5512 14.3366 28.4468L25.856 7.24448C25.7804 7.14544 25.6829 7.06519 25.5712 7.00998Z" fill="url(#paint1_linear_143_288)"/>
<path d="M25.5714 21.9865C25.882 21.8043 26.115 21.4917 26.2185 21.1531L14.2332 0.523437C13.9225 0.471375 13.5859 0.497406 13.3013 0.679844L2.42899 6.98334L14.1553 28.4985C14.3106 28.4722 14.4922 28.4202 14.6475 28.3421L25.5714 21.9865Z" fill="url(#paint2_linear_143_288)"/>
</g>
<defs>
<linearGradient id="paint0_linear_143_288" x1="18.4251" y1="5.3941" x2="8.47225" y2="25.5717" gradientUnits="userSpaceOnUse">
<stop stop-color="#3F873F"/>
<stop offset="0.33" stop-color="#3F8B3D"/>
<stop offset="0.637" stop-color="#3E9638"/>
<stop offset="0.934" stop-color="#3DA92E"/>
<stop offset="1" stop-color="#3DAE2B"/>
</linearGradient>
<linearGradient id="paint1_linear_143_288" x1="12.3311" y1="15.98" x2="40.1004" y2="-4.41135" gradientUnits="userSpaceOnUse">
<stop offset="0.138" stop-color="#3F873F"/>
<stop offset="0.402" stop-color="#52A044"/>
<stop offset="0.713" stop-color="#64B749"/>
<stop offset="0.908" stop-color="#6ABF4B"/>
</linearGradient>
<linearGradient id="paint2_linear_143_288" x1="1.38242" y1="14.4942" x2="26.6" y2="14.4942" gradientUnits="userSpaceOnUse">
<stop offset="0.092" stop-color="#6ABF4B"/>
<stop offset="0.287" stop-color="#64B749"/>
<stop offset="0.598" stop-color="#52A044"/>
<stop offset="0.862" stop-color="#3F873F"/>
</linearGradient>
<clipPath id="clip0_143_288">
<rect width="28" height="28" fill="white" transform="translate(0 0.5)"/>
</clipPath>
</defs>
</svg>
