<svg width="28" height="29" viewBox="0 0 28 29" fill="none" xmlns="http://www.w3.org/2000/svg">
<path d="M14 16.9938C15.3773 16.9938 16.4938 15.8774 16.4938 14.5001C16.4938 13.1228 15.3773 12.0063 14 12.0063C12.6227 12.0063 11.5063 13.1228 11.5063 14.5001C11.5063 15.8774 12.6227 16.9938 14 16.9938Z" fill="#61DAFB"/>
<path d="M23.4719 10.3876C22.9906 10.2126 22.4875 10.0376 21.9625 9.88447C22.0937 9.35947 22.2031 8.83447 22.2906 8.33135C22.75 5.44385 22.2469 3.40947 20.8469 2.62197C20.4312 2.38135 19.9719 2.27197 19.4469 2.27197C17.9156 2.27197 15.9687 3.40947 14 5.3126C12.0312 3.40947 10.0844 2.27197 8.55312 2.27197C8.02812 2.27197 7.56874 2.38135 7.15312 2.62197C5.75312 3.43135 5.24999 5.46572 5.70937 8.33135C5.79687 8.83447 5.90624 9.35947 6.03749 9.88447C5.51249 10.0376 5.00937 10.1907 4.52812 10.3876C1.79374 11.4376 0.306244 12.8813 0.306244 14.5001C0.306244 16.1188 1.81562 17.5626 4.52812 18.6126C5.00937 18.7876 5.51249 18.9626 6.03749 19.1157C5.90624 19.6407 5.79687 20.1657 5.70937 20.6688C5.24999 23.5563 5.75312 25.5907 7.15312 26.3782C7.56874 26.6188 8.02812 26.7282 8.55312 26.7282C10.1062 26.7282 12.0531 25.5907 14 23.6876C15.9687 25.5907 17.9156 26.7282 19.4469 26.7282C19.9719 26.7282 20.4312 26.6188 20.8469 26.3782C22.2469 25.5688 22.75 23.5345 22.2906 20.6688C22.2031 20.1657 22.0937 19.6407 21.9625 19.1157C22.4875 18.9626 22.9906 18.8095 23.4719 18.6126C26.2062 17.5626 27.6937 16.1188 27.6937 14.5001C27.6937 12.8813 26.2062 11.4376 23.4719 10.3876ZM20.2344 3.71572C21.1312 4.24072 21.4375 5.85947 21.0656 8.15635C21 8.61572 20.8906 9.09697 20.7594 9.6001C19.6219 9.3376 18.4187 9.1626 17.15 9.05322C16.4062 8.00322 15.6406 7.0626 14.875 6.20947C16.4937 4.6126 18.1344 3.51885 19.4687 3.51885C19.7531 3.51885 20.0156 3.58447 20.2344 3.71572ZM17.7844 16.6876C17.3906 17.3876 16.9312 18.0876 16.45 18.7876C15.6406 18.8532 14.8312 18.8751 14 18.8751C13.1469 18.8751 12.3375 18.8532 11.55 18.7876C11.0687 18.0876 10.6312 17.3876 10.2375 16.6876C9.82187 15.9657 9.42812 15.222 9.07812 14.5001C9.42812 13.7782 9.82187 13.0345 10.2375 12.3126C10.6312 11.6126 11.0906 10.9126 11.5719 10.2126C12.3812 10.147 13.1906 10.1251 14.0219 10.1251C14.875 10.1251 15.6844 10.147 16.4719 10.2126C16.9531 10.9126 17.3906 11.6126 17.7844 12.3126C18.2 13.0345 18.5937 13.7782 18.9437 14.5001C18.5719 15.222 18.2 15.9438 17.7844 16.6876ZM19.6 15.9657C19.9281 16.7313 20.1906 17.4751 20.4312 18.2188C19.6875 18.3938 18.9 18.5251 18.0687 18.6345C18.3312 18.2188 18.6156 17.7813 18.8562 17.322C19.1187 16.8626 19.3594 16.4032 19.6 15.9657ZM14 21.8938C13.475 21.3251 12.9719 20.7126 12.4906 20.0782C12.9937 20.1001 13.4969 20.122 14 20.122C14.5031 20.122 15.0062 20.1001 15.5094 20.0782C15.0281 20.7126 14.525 21.3251 14 21.8938ZM9.93124 18.6126C9.09999 18.5032 8.31249 18.372 7.56874 18.197C7.80937 17.4751 8.07187 16.7095 8.39999 15.9438C8.64062 16.3813 8.88124 16.8407 9.14374 17.2782C9.40624 17.7595 9.66874 18.1751 9.93124 18.6126ZM8.39999 13.0345C8.07187 12.2688 7.80937 11.5251 7.56874 10.7813C8.31249 10.6063 9.09999 10.4751 9.93124 10.3657C9.66874 10.7813 9.38437 11.2188 9.14374 11.6782C8.88124 12.1376 8.64062 12.597 8.39999 13.0345ZM14 7.10635C14.525 7.6751 15.0281 8.2876 15.5094 8.92197C15.0062 8.9001 14.5031 8.87822 14 8.87822C13.4969 8.87822 12.9937 8.9001 12.4906 8.92197C12.9719 8.2876 13.475 7.6751 14 7.10635ZM18.8562 11.7001L18.0687 10.3876C18.9 10.497 19.6875 10.6282 20.4312 10.8032C20.1906 11.5251 19.9281 12.2907 19.6 13.0563C19.3594 12.597 19.1187 12.1376 18.8562 11.7001ZM6.93437 8.15635C6.56249 5.85947 6.86874 4.24072 7.76562 3.71572C7.98437 3.58447 8.24687 3.51885 8.53124 3.51885C9.84374 3.51885 11.4844 4.59072 13.125 6.20947C12.3594 7.04072 11.5937 8.00322 10.85 9.05322C9.58124 9.1626 8.37812 9.35947 7.24062 9.6001C7.10937 9.09697 7.02187 8.61572 6.93437 8.15635ZM1.53124 14.5001C1.53124 13.472 2.77812 12.3782 4.96562 11.5688C5.40312 11.3938 5.88437 11.2407 6.36562 11.1095C6.71562 12.2032 7.15312 13.3626 7.67812 14.522C7.15312 15.6813 6.69374 16.8188 6.36562 17.9126C3.34687 17.0376 1.53124 15.7251 1.53124 14.5001ZM7.76562 25.2845C6.86874 24.7595 6.56249 23.1407 6.93437 20.8438C6.99999 20.3845 7.10937 19.9032 7.24062 19.4001C8.37812 19.6626 9.58124 19.8376 10.85 19.947C11.5937 20.997 12.3594 21.9376 13.125 22.7907C11.5062 24.3876 9.86562 25.4813 8.53124 25.4813C8.24687 25.4813 7.98437 25.4157 7.76562 25.2845ZM21.0656 20.8438C21.4375 23.1407 21.1312 24.7595 20.2344 25.2845C20.0156 25.4157 19.7531 25.4813 19.4687 25.4813C18.1562 25.4813 16.5156 24.4095 14.875 22.7907C15.6406 21.9595 16.4062 20.997 17.15 19.947C18.4187 19.8376 19.6219 19.6407 20.7594 19.4001C20.8906 19.9032 20.9781 20.3845 21.0656 20.8438ZM23.0344 17.4313C22.5969 17.6063 22.1156 17.7595 21.6344 17.8907C21.2844 16.797 20.8469 15.6376 20.3219 14.4782C20.8469 13.3188 21.3062 12.1813 21.6344 11.0876C24.6531 11.9626 26.4687 13.2751 26.4687 14.5001C26.4687 15.5282 25.2 16.622 23.0344 17.4313Z" fill="#61DAFB"/>
</svg>
