<svg width="28" height="29" viewBox="0 0 28 29" fill="none" xmlns="http://www.w3.org/2000/svg">
<path d="M14 8.49524C8.49362 8.49524 4.02893 6.94015 4.02893 4.88696V24.1129C4.02893 26.0886 8.41596 27.6908 13.8598 27.7223H14C19.5064 27.7223 23.9711 26.1663 23.9711 24.1129V4.88696C23.9711 6.89334 19.5064 8.49524 14 8.49524Z" fill="url(#paint0_linear_143_274)"/>
<path d="M23.9711 4.88696C23.9711 6.89334 19.5064 8.49546 14 8.49546C8.49362 8.49546 4.02893 6.94015 4.02893 4.88696C4.02893 2.83356 8.49362 1.27759 14 1.27759C19.5064 1.27759 23.9711 2.83356 23.9711 4.88696Z" fill="#E8E8E8"/>
<path d="M21.6536 4.59128C21.6536 5.86703 18.2153 6.89341 14 6.89341C9.78469 6.89341 6.34637 5.86703 6.34637 4.59128C6.34637 3.31553 9.78469 2.30469 14 2.30469C18.2153 2.30469 21.6536 3.33084 21.6536 4.59128Z" fill="#50E6FF"/>
<path d="M14 5.1665C11.947 5.1144 9.90019 5.41441 7.94849 6.05353C9.90201 6.68088 11.9494 6.96508 14 6.89353C16.0547 6.95351 18.1037 6.64798 20.0515 5.99118C18.0942 5.38197 16.049 5.10325 14 5.1665Z" fill="#198AB3"/>
<path d="M20.0668 18.2331V12.9448H18.6664V19.3689H22.4936V18.2331H20.0668ZM8.96021 15.6354C8.67109 15.5192 8.40294 15.3564 8.16637 15.1535C8.10365 15.0871 8.05485 15.0089 8.02284 14.9233C7.99083 14.8378 7.97626 14.7467 7.97999 14.6554C7.97525 14.5641 7.99426 14.4731 8.03516 14.3914C8.07607 14.3096 8.13748 14.2398 8.2134 14.1889C8.40484 14.0565 8.63452 13.9907 8.86702 14.0018C9.42094 13.9772 9.96755 14.1357 10.4223 14.4529V13.1157C9.92558 12.9302 9.39684 12.8457 8.86702 12.8669C8.25664 12.8342 7.65477 13.0216 7.17083 13.395C6.96007 13.5577 6.79097 13.7681 6.67748 14.0089C6.56399 14.2497 6.50936 14.514 6.51808 14.7801C6.51808 15.5731 7.0153 16.1952 8.0734 16.6618C8.41683 16.8079 8.74058 16.9959 9.03808 17.2223C9.11079 17.2832 9.16933 17.3593 9.2096 17.4452C9.24987 17.5311 9.27092 17.6248 9.27127 17.7197C9.27127 17.912 9.17808 18.0914 9.02255 18.2025C8.81051 18.3262 8.56707 18.3855 8.3219 18.3733C7.69626 18.3681 7.09381 18.1358 6.62658 17.7197V19.1663C7.14029 19.4314 7.71354 19.56 8.29127 19.5397C8.94315 19.5782 9.58912 19.3979 10.1266 19.0261C10.3163 18.8464 10.4615 18.625 10.5507 18.3794C10.6399 18.1338 10.6705 17.8707 10.6402 17.6112C10.6478 17.213 10.5095 16.8257 10.2513 16.5225C9.88781 16.1396 9.44795 15.8374 8.96021 15.6354ZM17.1113 18.1084C17.4644 17.5171 17.6424 16.8376 17.6247 16.1491C17.5895 15.5659 17.4133 15 17.1113 14.4999C16.8684 14.0143 16.4903 13.6092 16.0226 13.3335C15.5483 13.0645 15.0118 12.9248 14.4666 12.9284C13.8791 12.9157 13.2989 13.0609 12.7866 13.3489C12.3063 13.6167 11.9124 14.016 11.6511 14.4999C11.3757 15.0498 11.237 15.658 11.2468 16.2729C11.2499 16.8134 11.3777 17.346 11.6202 17.8291C11.8577 18.3094 12.2308 18.7095 12.6934 18.9799C13.1633 19.2661 13.6989 19.4268 14.2487 19.4465L15.5868 21.0018H17.4691L15.5551 19.2912C16.1996 19.0978 16.7524 18.6777 17.1113 18.1084ZM15.5551 17.7197C15.4136 17.8956 15.2333 18.0363 15.0282 18.1307C14.8232 18.2252 14.599 18.2708 14.3734 18.2639C14.146 18.2714 13.92 18.2246 13.7144 18.1272C13.5087 18.0299 13.3292 17.8848 13.1908 17.7042C12.8626 17.2548 12.7029 16.7043 12.7396 16.1491C12.7038 15.5936 12.8635 15.0432 13.1908 14.5931C13.3372 14.4126 13.5222 14.2672 13.7322 14.1676C13.9422 14.068 14.1718 14.0168 14.4042 14.0178C14.6315 14.0078 14.8576 14.0552 15.0616 14.1558C15.2657 14.2563 15.441 14.4068 15.5715 14.5931C15.8777 15.0519 16.0251 15.5985 15.9911 16.1491C16.0457 16.7086 15.8903 17.2684 15.5551 17.7197Z" fill="url(#paint1_radial_143_274)"/>
<defs>
<linearGradient id="paint0_linear_143_274" x1="4.02888" y1="16.3044" x2="23.9711" y2="16.3044" gradientUnits="userSpaceOnUse">
<stop stop-color="#005BA1"/>
<stop offset="0.07" stop-color="#0060A9"/>
<stop offset="0.36" stop-color="#0071C8"/>
<stop offset="0.52" stop-color="#0078D4"/>
<stop offset="0.64" stop-color="#0074CD"/>
<stop offset="0.82" stop-color="#006ABB"/>
<stop offset="1" stop-color="#005BA1"/>
</linearGradient>
<radialGradient id="paint1_radial_143_274" cx="0" cy="0" r="1" gradientUnits="userSpaceOnUse" gradientTransform="translate(11403.5 3671.66) scale(8249.13 2139.75)">
<stop stop-color="#F2F2F2"/>
<stop offset="0.58" stop-color="#EEEEEE"/>
<stop offset="1" stop-color="#E6E6E6"/>
</radialGradient>
</defs>
</svg>
