<svg width="28" height="29" viewBox="0 0 28 29" fill="none" xmlns="http://www.w3.org/2000/svg">
<g clip-path="url(#clip0_143_345)">
<path d="M14.0009 6.10034C10.2675 6.10034 7.93495 7.96628 7.00089 11.6997C8.40045 9.83353 10.0343 9.13375 11.9004 9.60034C12.966 9.8659 13.7274 10.6385 14.5707 11.4947C15.9432 12.8875 17.5317 14.4999 21.0009 14.4999C24.7341 14.4999 27.0668 12.6337 28.0009 8.89947C26.6011 10.7667 24.9675 11.4665 23.1011 10.9999C22.0358 10.7341 21.2752 9.96172 20.4308 9.10553C19.0593 7.71275 17.4711 6.10034 14.0009 6.10034ZM7.00089 14.4999C3.2677 14.4999 0.934947 16.3661 0.00088501 20.1003C1.40045 18.2331 3.03407 17.5333 4.90045 17.9999C5.96598 18.2657 6.72745 19.0381 7.57073 19.8943C8.94317 21.2871 10.5317 22.8995 14.0009 22.8995C17.7341 22.8995 20.0668 21.0335 21.0009 17.3001C19.6011 19.1663 17.9675 19.8661 16.1011 19.3995C15.0358 19.1339 14.2752 18.3613 13.4308 17.5051C12.0593 16.1123 10.4711 14.4999 7.00089 14.4999Z" fill="#38BDF8"/>
</g>
<defs>
<clipPath id="clip0_143_345">
<rect width="28" height="28" fill="white" transform="translate(0 0.5)"/>
</clipPath>
</defs>
</svg>
