<svg width="28" height="29" viewBox="0 0 28 29" fill="none" xmlns="http://www.w3.org/2000/svg">
<g clip-path="url(#clip0_143_351)">
<path d="M4.95908 10.7812H26.7619V26.8966H4.95908V10.7812Z" fill="white"/>
<path d="M0.328125 14.4802V28.1521H27.6719V0.80835H0.328125V14.4802ZM22.3628 13.3865C23.0177 13.5385 23.613 13.881 24.0734 14.3708C24.3269 14.6348 24.5473 14.9286 24.7297 15.2458C24.7297 15.2808 23.5484 16.0793 22.8288 16.5255C22.8025 16.543 22.6975 16.4293 22.5816 16.2565C22.4502 16.0298 22.2635 15.8401 22.039 15.705C21.8144 15.57 21.5593 15.4941 21.2975 15.4843C20.4684 15.4274 19.9347 15.8627 19.9391 16.578C19.9322 16.7561 19.973 16.9328 20.0572 17.0899C20.2388 17.4683 20.5778 17.6937 21.6409 18.153C23.5987 18.9952 24.4366 19.5508 24.9572 20.3405C25.5391 21.2155 25.6681 22.6287 25.2744 23.6743C24.8369 24.8118 23.765 25.584 22.2491 25.8399C21.5567 25.9192 20.8571 25.9119 20.1666 25.818C19.1082 25.6436 18.1332 25.1354 17.3841 24.3677C17.1325 24.0899 16.6425 23.3658 16.6731 23.3133C16.753 23.2541 16.8371 23.2007 16.9247 23.1537L17.9375 22.5937L18.7228 22.1387L18.8869 22.3815C19.1638 22.7775 19.5161 23.115 19.9237 23.3746C20.7987 23.834 21.9931 23.7705 22.5837 23.239C22.7821 23.0442 22.9058 22.786 22.9333 22.5094C22.9609 22.2328 22.8906 21.9553 22.7347 21.7252C22.5159 21.4212 22.0784 21.1652 20.8556 20.6315C19.4447 20.0233 18.8366 19.6471 18.2809 19.0477C17.9341 18.6522 17.678 18.1856 17.5306 17.6805C17.4207 17.1036 17.4045 16.5127 17.4825 15.9305C17.7734 14.5677 18.795 13.6162 20.2869 13.334C20.9778 13.2485 21.6776 13.2677 22.3628 13.3909V13.3865ZM15.9447 14.5327V15.6527H12.3944V25.7655H9.87656V15.6505H6.3175V14.5568C6.30641 14.1796 6.31518 13.8021 6.34375 13.4258C6.36125 13.4062 8.53125 13.4062 11.1562 13.4062H15.9316L15.9447 14.5327Z" fill="#007ACC"/>
</g>
<defs>
<clipPath id="clip0_143_351">
<rect width="28" height="28" fill="white" transform="translate(0 0.5)"/>
</clipPath>
</defs>
</svg>
